<svg t="1721891999663" class="icon" viewBox="0 0 1024 1024" version="1.1" xmlns="http://www.w3.org/2000/svg" p-id="9599" width="16" height="16"><path d="M874.666667 981.333333a21.266667 21.266667 0 0 1-10.813334-2.946666L512 771.42l-351.853333 206.966667A21.333333 21.333333 0 0 1 128 960V96a53.393333 53.393333 0 0 1 53.333333-53.333333h661.333334a53.393333 53.393333 0 0 1 53.333333 53.333333v864a21.333333 21.333333 0 0 1-21.333333 21.333333z m-362.666667-256a21.266667 21.266667 0 0 1 10.813333 2.946667L853.333333 922.7V96a10.666667 10.666667 0 0 0-10.666666-10.666667H181.333333a10.666667 10.666667 0 0 0-10.666666 10.666667v826.7l330.52-194.42A21.266667 21.266667 0 0 1 512 725.333333z" p-id="9600"></path></svg>