<svg t="1721294819645" class="icon" viewBox="0 0 1024 1024" version="1.1" xmlns="http://www.w3.org/2000/svg" p-id="7557" width="16" height="16"><path d="M138.666667 938.713333a53.58 53.58 0 0 1-53.333334-53.433333V138.72a53.333333 53.333333 0 0 1 80.886667-45.666667l618.666667 373.28a53.333333 53.333333 0 0 1 0 91.333334l-618.666667 373.28a53.16 53.16 0 0 1-27.553333 7.766666z m0.046666-810.666666a10.98 10.98 0 0 0-5.333333 1.42 10.466667 10.466667 0 0 0-5.38 9.253333v746.56a10.666667 10.666667 0 0 0 16.18 9.133333l618.666667-373.28a10.666667 10.666667 0 0 0 0-18.266666l-618.666667-373.28a10.386667 10.386667 0 0 0-5.446667-1.586667zM938.666667 917.333333V106.666667a21.333333 21.333333 0 0 0-42.666667 0v810.666666a21.333333 21.333333 0 0 0 42.666667 0z" p-id="7558"></path></svg>