<svg t="1721111945809" class="icon" viewBox="0 0 1024 1024" version="1.1" xmlns="http://www.w3.org/2000/svg" p-id="7978" width="16" height="16"><path d="M885.333333 981.333333H181.333333a53.393333 53.393333 0 0 1-53.333333-53.333333V96a53.393333 53.393333 0 0 1 53.333333-53.333333h704a53.393333 53.393333 0 0 1 53.333334 53.333333v832a53.393333 53.393333 0 0 1-53.333334 53.333333zM181.333333 85.333333a10.666667 10.666667 0 0 0-10.666666 10.666667v832a10.666667 10.666667 0 0 0 10.666666 10.666667h704a10.666667 10.666667 0 0 0 10.666667-10.666667V96a10.666667 10.666667 0 0 0-10.666667-10.666667z m565.333334 725.333334H320a21.333333 21.333333 0 0 1 0-42.666667h426.666667a21.333333 21.333333 0 0 1 0 42.666667z m0-170.666667H320a21.333333 21.333333 0 0 1 0-42.666667h426.666667a21.333333 21.333333 0 0 1 0 42.666667z m0-213.333333H618.666667a21.333333 21.333333 0 0 1 0-42.666667h128a21.333333 21.333333 0 0 1 0 42.666667z m0-170.666667H618.666667a21.333333 21.333333 0 0 1 0-42.666667h128a21.333333 21.333333 0 0 1 0 42.666667zM497.726667 468.133333A21.333333 21.333333 0 0 0 512 448V234.666667a21.333333 21.333333 0 0 0-42.666667 0v152.52L336.666667 221.333333a21.333333 21.333333 0 0 0-38 13.333334v213.333333a21.333333 21.333333 0 0 0 42.666666 0V295.48L474 461.333333a21.333333 21.333333 0 0 0 23.72 6.806667z" p-id="7979"></path></svg>