<svg t="1721890815330" class="icon" viewBox="0 0 1024 1024" version="1.1" xmlns="http://www.w3.org/2000/svg" p-id="9077" width="16" height="16"><path d="M932.42 902.246667l-213.333333-213.333334A361.333333 361.333333 0 0 0 810.666667 448c0-200.293333-162.373333-362.666667-362.666667-362.666667S85.333333 247.706667 85.333333 448s162.373333 362.666667 362.666667 362.666667a361.333333 361.333333 0 0 0 240.913333-91.58l213.333334 213.333333a21.333333 21.333333 0 0 0 30.173333-30.173333zM128 448c0-176.733333 143.266667-320 320-320s320 143.266667 320 320-143.266667 320-320 320-320-143.266667-320-320z" p-id="9078"></path></svg>