<svg t="1721888069090" class="icon" viewBox="0 0 1024 1024" version="1.1" xmlns="http://www.w3.org/2000/svg" p-id="8549" width="16" height="16"><path d="M512 981.333333a474.58 474.58 0 0 1-73.573333-5.74 53.466667 53.466667 0 0 1-44.58-60.44 106.706667 106.706667 0 0 0-171.513334-98.893333 53.566667 53.566667 0 0 1-38.666666 11.213333 52.6 52.6 0 0 1-35.666667-19.22 468.16 468.16 0 0 1-74.346667-128.306666c-10.4-27.046667 3.013333-57.746667 29.82-68.44A106.7 106.7 0 0 0 103.333333 413.2c-26.84-10.666667-40.286667-41.333333-29.966666-68.386667A468.126667 468.126667 0 0 1 147.44 216.4a53.233333 53.233333 0 0 1 74.16-8.286667 106.606667 106.606667 0 0 0 119.433333 8.366667 106.246667 106.246667 0 0 0 52.086667-107.42 53.566667 53.566667 0 0 1 9.62-39.173333 52.613333 52.613333 0 0 1 34.546667-21.3 474.34 474.34 0 0 1 147.893333-0.24 53.46 53.46 0 0 1 44.62 60.4A106.733333 106.733333 0 0 0 735.333333 230.306667a107.333333 107.333333 0 0 0 66.266667-22.973334 53.226667 53.226667 0 0 1 74.173333 8.093334 468.233333 468.233333 0 0 1 74.46 128.24c10.393333 27.04-2.973333 57.753333-29.793333 68.466666A106.166667 106.166667 0 0 0 853.333333 511.406667v0.593333a106.153333 106.153333 0 0 0 67.273334 99.153333c26.84 10.666667 40.26 41.333333 29.92 68.413334a468 468 0 0 1-74.22 128.346666 52.606667 52.606667 0 0 1-35.653334 19.253334 53.52 53.52 0 0 1-38.706666-11.18 106.226667 106.226667 0 0 0-119.246667-8.32 106.253333 106.253333 0 0 0-52.173333 107.373333 53.48 53.48 0 0 1-44.533334 60.486667A474.16 474.16 0 0 1 512 981.333333z m-223.6-230.506666a149.4 149.4 0 0 1 147.693333 170.293333 10.786667 10.786667 0 0 0 8.973334 12.326667 431.726667 431.726667 0 0 0 134.246666-0.06 10.786667 10.786667 0 0 0 8.973334-12.333334 149.373333 149.373333 0 0 1 240-138.666666c4.733333 3.706667 11.3 3.093333 14.946666-1.4a425.506667 425.506667 0 0 0 67.473334-116.666667 10.533333 10.533333 0 0 0-5.826667-13.526667A149.333333 149.333333 0 0 1 810.666667 512v-0.56a149.333333 149.333333 0 0 1 93.94-138.926667 10.526667 10.526667 0 0 0 5.8-13.54 425.62 425.62 0 0 0-67.686667-116.566666 10.566667 10.566667 0 0 0-14.666667-1.593334 149.333333 149.333333 0 0 1-167.193333 12.173334 149.333333 149.333333 0 0 1-73.306667-150.173334 10.78 10.78 0 0 0-8.98-12.313333 431.486667 431.486667 0 0 0-134.54 0.22c-5.726667 0.913333-9.533333 6.313333-8.666666 12.293333a149.333333 149.333333 0 0 1-240.1 138.666667 10.586667 10.586667 0 0 0-14.666667 1.62A425.18 425.18 0 0 0 113.2 360a10.52 10.52 0 0 0 5.833333 13.52 149.166667 149.166667 0 0 1 67.813334 53.946667 149.386667 149.386667 0 0 1 0.146666 169.633333 149.186667 149.186667 0 0 1-67.72 54.04 10.526667 10.526667 0 0 0-5.813333 13.533333 425.42 425.42 0 0 0 67.586667 116.666667c3.653333 4.486667 10.22 5.093333 14.953333 1.38A149.24 149.24 0 0 1 276.5 751.333333q5.96-0.506667 11.9-0.506666z m383.6 38.38zM512 640c-70.58 0-128-57.42-128-128s57.42-128 128-128 128 57.42 128 128-57.42 128-128 128z m0-213.333333a85.333333 85.333333 0 1 0 85.333333 85.333333 85.426667 85.426667 0 0 0-85.333333-85.333333z" p-id="8550"></path></svg>