<svg t="1720166847469" class="icon" viewBox="0 0 1024 1024" version="1.1" xmlns="http://www.w3.org/2000/svg" p-id="7521" width="32" height="32"><path d="M533.333333 85.333333c-247.426667 0-448 200.573333-448 448s200.573333 448 448 448 448-200.573333 448-448-200.573333-448-448-448z m0 853.333334c-223.86 0-405.333333-181.473333-405.333333-405.333334s181.473333-405.333333 405.333333-405.333333 405.333333 181.473333 405.333334 405.333333-181.473333 405.333333-405.333334 405.333334z m0-298.666667a21.333333 21.333333 0 0 1-21.333333-21.333333V320a21.333333 21.333333 0 0 1 42.666667 0v298.666667a21.333333 21.333333 0 0 1-21.333334 21.333333z m21.333334 106.666667a21.333333 21.333333 0 1 1-21.333334-21.333334 21.333333 21.333333 0 0 1 21.333334 21.333334z" fill="#515151" p-id="7522"></path></svg>